<mxfile host="app.diagrams.net" modified="2020-11-29T15:38:56.501Z" agent="5.0 (Macintosh; Intel Mac OS X 10_15_3) AppleWebKit/537.36 (KHTML, like Gecko) Chrome/87.0.4280.67 Safari/537.36" etag="kCMbK9HE9udrtev5zRpl" version="13.10.4" type="github">
  <diagram id="e_Nu4UiDqZK5FSXZQxsC" name="Page-1">
    <mxGraphModel dx="834" dy="485" grid="1" gridSize="10" guides="1" tooltips="1" connect="1" arrows="1" fold="1" page="1" pageScale="1" pageWidth="850" pageHeight="1100" math="0" shadow="0">
      <root>
        <mxCell id="0" />
        <mxCell id="1" parent="0" />
        <mxCell id="trqewR6XDROr1OXFbvpF-3" value="" style="whiteSpace=wrap;html=1;aspect=fixed;fillColor=#dae8fc;strokeColor=#6c8ebf;" parent="1" vertex="1">
          <mxGeometry x="120" y="40" width="240" height="240" as="geometry" />
        </mxCell>
        <mxCell id="trqewR6XDROr1OXFbvpF-5" value="" style="whiteSpace=wrap;html=1;aspect=fixed;fillColor=#f8cecc;strokeColor=#b85450;" parent="1" vertex="1">
          <mxGeometry x="360" y="40" width="240" height="240" as="geometry" />
        </mxCell>
        <mxCell id="trqewR6XDROr1OXFbvpF-6" value="" style="whiteSpace=wrap;html=1;aspect=fixed;fillColor=#d5e8d4;strokeColor=#82b366;" parent="1" vertex="1">
          <mxGeometry x="120" y="280" width="240" height="240" as="geometry" />
        </mxCell>
        <mxCell id="trqewR6XDROr1OXFbvpF-7" value="" style="whiteSpace=wrap;html=1;aspect=fixed;fillColor=#fff2cc;strokeColor=#d6b656;" parent="1" vertex="1">
          <mxGeometry x="360" y="280" width="240" height="240" as="geometry" />
        </mxCell>
        <mxCell id="trqewR6XDROr1OXFbvpF-8" value="Holistic/Organic" style="text;html=1;align=center;verticalAlign=middle;resizable=0;points=[];autosize=1;fontSize=20;" parent="1" vertex="1">
          <mxGeometry x="275" y="525" width="160" height="30" as="geometry" />
        </mxCell>
        <mxCell id="trqewR6XDROr1OXFbvpF-9" value="Reductionist/Formulated" style="text;html=1;align=center;verticalAlign=middle;resizable=0;points=[];autosize=1;fontSize=20;" parent="1" vertex="1">
          <mxGeometry x="249" y="5" width="230" height="30" as="geometry" />
        </mxCell>
        <mxCell id="trqewR6XDROr1OXFbvpF-10" value="Enactivist" style="text;html=1;align=center;verticalAlign=middle;resizable=0;points=[];autosize=1;fontSize=20;" parent="1" vertex="1">
          <mxGeometry x="605" y="265" width="100" height="30" as="geometry" />
        </mxCell>
        <mxCell id="trqewR6XDROr1OXFbvpF-11" value="Functional" style="text;html=1;align=center;verticalAlign=middle;resizable=0;points=[];autosize=1;fontSize=20;" parent="1" vertex="1">
          <mxGeometry x="4" y="265" width="110" height="30" as="geometry" />
        </mxCell>
        <mxCell id="trqewR6XDROr1OXFbvpF-18" value="Model Making" style="ellipse;whiteSpace=wrap;html=1;aspect=fixed;fontSize=12;labelPosition=left;verticalLabelPosition=middle;align=right;verticalAlign=middle;" parent="1" vertex="1">
          <mxGeometry x="250" y="340" width="10" height="10" as="geometry" />
        </mxCell>
        <mxCell id="trqewR6XDROr1OXFbvpF-23" value="Thousand&lt;br&gt;Brains" style="ellipse;whiteSpace=wrap;html=1;aspect=fixed;fontSize=12;labelPosition=left;verticalLabelPosition=middle;align=right;verticalAlign=middle;" parent="1" vertex="1">
          <mxGeometry x="370" y="395" width="10" height="10" as="geometry" />
        </mxCell>
        <mxCell id="trqewR6XDROr1OXFbvpF-26" value="GOFAI" style="ellipse;whiteSpace=wrap;html=1;aspect=fixed;fontSize=12;labelPosition=left;verticalLabelPosition=middle;align=right;verticalAlign=middle;" parent="1" vertex="1">
          <mxGeometry x="225" y="160" width="10" height="10" as="geometry" />
        </mxCell>
        <mxCell id="trqewR6XDROr1OXFbvpF-28" value="Deep Learning" style="ellipse;whiteSpace=wrap;html=1;aspect=fixed;fontSize=12;labelPosition=left;verticalLabelPosition=middle;align=right;verticalAlign=middle;" parent="1" vertex="1">
          <mxGeometry x="465" y="255" width="10" height="10" as="geometry" />
        </mxCell>
        <mxCell id="trqewR6XDROr1OXFbvpF-29" value="Capsule&lt;br&gt;Networks" style="ellipse;whiteSpace=wrap;html=1;aspect=fixed;fontSize=12;labelPosition=left;verticalLabelPosition=middle;align=right;verticalAlign=middle;" parent="1" vertex="1">
          <mxGeometry x="420" y="370" width="10" height="10" as="geometry" />
        </mxCell>
        <mxCell id="trqewR6XDROr1OXFbvpF-39" value="Meta Learning" style="ellipse;whiteSpace=wrap;html=1;aspect=fixed;fontSize=12;labelPosition=left;verticalLabelPosition=middle;align=right;verticalAlign=middle;" parent="1" vertex="1">
          <mxGeometry x="396" y="175" width="10" height="10" as="geometry" />
        </mxCell>
        <mxCell id="trqewR6XDROr1OXFbvpF-51" value="Openendedness" style="ellipse;whiteSpace=wrap;html=1;aspect=fixed;fontSize=12;labelPosition=left;verticalLabelPosition=middle;align=right;verticalAlign=middle;" parent="1" vertex="1">
          <mxGeometry x="475" y="430" width="10" height="10" as="geometry" />
        </mxCell>
        <mxCell id="trqewR6XDROr1OXFbvpF-55" value="Analogy&lt;br&gt;Making" style="ellipse;whiteSpace=wrap;html=1;aspect=fixed;fontSize=12;labelPosition=left;verticalLabelPosition=middle;align=right;verticalAlign=middle;" parent="1" vertex="1">
          <mxGeometry x="235" y="405" width="10" height="10" as="geometry" />
        </mxCell>
        <mxCell id="trqewR6XDROr1OXFbvpF-59" value="Reality as Illusion" style="ellipse;whiteSpace=wrap;html=1;aspect=fixed;fontSize=12;labelPosition=left;verticalLabelPosition=middle;align=right;verticalAlign=middle;" parent="1" vertex="1">
          <mxGeometry x="340" y="470" width="10" height="10" as="geometry" />
        </mxCell>
        <mxCell id="trqewR6XDROr1OXFbvpF-63" value="Compression" style="ellipse;whiteSpace=wrap;html=1;aspect=fixed;fontSize=12;labelPosition=left;verticalLabelPosition=middle;align=right;verticalAlign=middle;" parent="1" vertex="1">
          <mxGeometry x="200" y="60" width="10" height="10" as="geometry" />
        </mxCell>
        <mxCell id="trqewR6XDROr1OXFbvpF-70" value="Cognitve Synergy" style="ellipse;whiteSpace=wrap;html=1;aspect=fixed;fontSize=12;labelPosition=left;verticalLabelPosition=middle;align=right;verticalAlign=middle;" parent="1" vertex="1">
          <mxGeometry x="370" y="230" width="10" height="10" as="geometry" />
        </mxCell>
        <mxCell id="trqewR6XDROr1OXFbvpF-71" value="Causal Graphs" style="ellipse;whiteSpace=wrap;html=1;aspect=fixed;fontSize=12;labelPosition=left;verticalLabelPosition=middle;align=right;verticalAlign=middle;" parent="1" vertex="1">
          <mxGeometry x="340" y="130" width="10" height="10" as="geometry" />
        </mxCell>
        <mxCell id="trqewR6XDROr1OXFbvpF-72" value="Bitter Lesson" style="ellipse;whiteSpace=wrap;html=1;aspect=fixed;fontSize=12;labelPosition=left;verticalLabelPosition=middle;align=right;verticalAlign=middle;" parent="1" vertex="1">
          <mxGeometry x="570" y="210" width="10" height="10" as="geometry" />
        </mxCell>
        <mxCell id="trqewR6XDROr1OXFbvpF-75" value="Reinforcement Learning" style="ellipse;whiteSpace=wrap;html=1;aspect=fixed;fontSize=12;labelPosition=left;verticalLabelPosition=middle;align=right;verticalAlign=middle;" parent="1" vertex="1">
          <mxGeometry x="570" y="370" width="10" height="10" as="geometry" />
        </mxCell>
        <mxCell id="trqewR6XDROr1OXFbvpF-78" value="Induction Bias" style="ellipse;whiteSpace=wrap;html=1;aspect=fixed;fontSize=12;labelPosition=left;verticalLabelPosition=middle;align=right;verticalAlign=middle;" parent="1" vertex="1">
          <mxGeometry x="359" y="330" width="10" height="10" as="geometry" />
        </mxCell>
        <mxCell id="trqewR6XDROr1OXFbvpF-83" value="Judgement" style="ellipse;whiteSpace=wrap;html=1;aspect=fixed;fontSize=12;labelPosition=left;verticalLabelPosition=middle;align=right;verticalAlign=middle;" parent="1" vertex="1">
          <mxGeometry x="190" y="440" width="10" height="10" as="geometry" />
        </mxCell>
        <mxCell id="trqewR6XDROr1OXFbvpF-84" value="Bayesian&lt;br&gt;Brain" style="ellipse;whiteSpace=wrap;html=1;aspect=fixed;fontSize=12;labelPosition=left;verticalLabelPosition=middle;align=right;verticalAlign=middle;" parent="1" vertex="1">
          <mxGeometry x="330" y="295" width="10" height="10" as="geometry" />
        </mxCell>
        <mxCell id="trqewR6XDROr1OXFbvpF-86" value="Cognitive Speed" style="ellipse;whiteSpace=wrap;html=1;aspect=fixed;fontSize=12;labelPosition=left;verticalLabelPosition=middle;align=right;verticalAlign=middle;" parent="1" vertex="1">
          <mxGeometry x="426" y="205" width="10" height="10" as="geometry" />
        </mxCell>
        <mxCell id="trqewR6XDROr1OXFbvpF-87" value="Vicarious" style="ellipse;whiteSpace=wrap;html=1;aspect=fixed;fontSize=12;labelPosition=left;verticalLabelPosition=middle;align=right;verticalAlign=middle;" parent="1" vertex="1">
          <mxGeometry x="485" y="353" width="10" height="10" as="geometry" />
        </mxCell>
        <mxCell id="trqewR6XDROr1OXFbvpF-88" value="Evolutionary" style="ellipse;whiteSpace=wrap;html=1;aspect=fixed;fontSize=12;labelPosition=left;verticalLabelPosition=middle;align=right;verticalAlign=middle;" parent="1" vertex="1">
          <mxGeometry x="520" y="405" width="10" height="10" as="geometry" />
        </mxCell>
        <mxCell id="trqewR6XDROr1OXFbvpF-89" value="Free Energy Principle" style="ellipse;whiteSpace=wrap;html=1;aspect=fixed;fontSize=12;labelPosition=left;verticalLabelPosition=middle;align=right;verticalAlign=middle;" parent="1" vertex="1">
          <mxGeometry x="520" y="110" width="10" height="10" as="geometry" />
        </mxCell>
        <mxCell id="LOAbWyqPgFJrH-aSDBwY-21" value="Computational Complexity" style="ellipse;whiteSpace=wrap;html=1;aspect=fixed;fontSize=12;labelPosition=left;verticalLabelPosition=middle;align=right;verticalAlign=middle;" parent="1" vertex="1">
          <mxGeometry x="310" y="205" width="10" height="10" as="geometry" />
        </mxCell>
        <mxCell id="eXJtEBARMdF0W1MzuHGJ-7" value="Explanation&lt;br&gt;Generation" style="ellipse;whiteSpace=wrap;html=1;aspect=fixed;fontSize=12;labelPosition=left;verticalLabelPosition=middle;align=right;verticalAlign=middle;" vertex="1" parent="1">
          <mxGeometry x="235" y="370" width="10" height="10" as="geometry" />
        </mxCell>
        <mxCell id="eXJtEBARMdF0W1MzuHGJ-12" value="SelfPlay" style="ellipse;whiteSpace=wrap;html=1;aspect=fixed;fontSize=12;labelPosition=left;verticalLabelPosition=middle;align=right;verticalAlign=middle;" vertex="1" parent="1">
          <mxGeometry x="540" y="391" width="10" height="10" as="geometry" />
        </mxCell>
      </root>
    </mxGraphModel>
  </diagram>
</mxfile>
